<?xml version="1.0" standalone="no"?><!DOCTYPE svg PUBLIC "-//W3C//DTD SVG 1.1//EN" "http://www.w3.org/Graphics/SVG/1.1/DTD/svg11.dtd"><svg t="1594522669382" class="icon" viewBox="0 0 4358 1024" version="1.1" xmlns="http://www.w3.org/2000/svg" p-id="1707" xmlns:xlink="http://www.w3.org/1999/xlink" width="851.171875" height="200"><defs><style type="text/css"></style></defs><path d="M1251.897065 540.15379531c0-10.3320525-5.43290625-19.82534063-14.35431-24.94371l-237.68486719-136.79485218a27.96516844 27.96516844 0 0 0-13.08663093-3.77443969h-2.45910469a28.33689375 28.33689375 0 0 0-13.12475719 3.77443968L733.49299625 515.21008531a28.81346438 28.81346438 0 0 0-14.37337125 24.94371l0.5242275 368.33195625c0 5.12790094 2.65926469 9.89360719 7.16762344 12.40036969a13.78242469 13.78242469 0 0 0 14.25899437 0l141.26508469-80.87404688a28.93737281 28.93737281 0 0 0 14.36384062-24.90558375V642.99775062a28.59424125 28.59424125 0 0 1 14.33524688-24.83886468l60.1527525-34.65622125a28.59424125 28.59424125 0 0 1 28.67049281 0l60.12415875 34.65622125a28.59424125 28.59424125 0 0 1 14.35430907 24.83886468V815.09695906c0 10.23673875 5.50915687 19.65377531 14.39243531 24.90558469l141.21742781 80.87404594a13.95399 13.95399 0 0 0 14.35430906 0c4.37491875-2.50676156 7.12949719-7.27246875 7.12949719-12.40036969l0.46704-368.32242469zM2521.10013312 33.81649719a14.37337219 14.37337219 0 0 0-21.35989875 12.53380875v364.77673968c0 3.58381125-1.91581406 6.90074344-5.00399156 8.70218063a10.10329875 10.10329875 0 0 1-10.06517344 0l-59.53321031-34.30355813a28.71814969 28.71814969 0 0 0-28.68955594 0.00953157L2158.66812125 522.76849625a28.66096125 28.66096125 0 0 0-14.35430906 24.84839531v274.51425094c0 10.25580094 5.4615 19.73002688 14.3447775 24.86745844l237.77065031 137.32861125a28.6990875 28.6990875 0 0 0 28.72768125 0l237.80877562-137.32861125a28.70861813 28.70861813 0 0 0 14.35430907-24.86745844V137.85187906a28.71814969 28.71814969 0 0 0-14.72603438-25.07715L2521.10013312 33.81649719z m-22.05569156 698.11887562c0 2.57348156-1.382055 4.94680406-3.60287437 6.20495063l-81.62702813 47.06612156a7.13902875 7.13902875 0 0 1-7.16762344 0l-81.64609125-47.06612156a7.16762344 7.16762344 0 0 1-3.59334281-6.20495063v-94.27521375c0-2.56395 1.382055-4.92774094 3.58381125-6.20495062l81.64609125-47.15190469a7.16762344 7.16762344 0 0 1 7.18668656 0l81.62702813 47.15190469a7.20574875 7.20574875 0 0 1 3.59334281 6.20495062v94.27521375zM3371.80741344 635.20105344a28.6990875 28.6990875 0 0 0 14.28759-24.81980157v-66.51973687a28.70861813 28.70861813 0 0 0-14.29712063-24.82933313l-236.25515531-137.17610812a28.73721281 28.73721281 0 0 0-28.78486969-0.03812531l-237.69439875 137.223765a28.70861813 28.70861813 0 0 0-14.35431 24.86745844v274.43799937c0 10.32252094 5.52822 19.83487219 14.49728063 24.93417844l236.21703 134.60262656a28.73721281 28.73721281 0 0 0 28.15579594 0.17156531l142.86636281-79.41574031c4.54648406-2.53535625 7.35825187-7.29153187 7.37731406-12.46708969a14.32571531 14.32571531 0 0 0-7.19621719-12.53380875L3037.44541625 736.32935469a14.32571531 14.32571531 0 0 1-7.22481188-12.44802657v-86.01147843c0-5.12790094 2.73551531-9.874545 7.19621719-12.42896344l74.44987406-42.92948812a14.3447775 14.3447775 0 0 1 14.32571438 0l74.48799937 42.92948812c4.45117031 2.55441938 7.18668562 7.30106344 7.18668657 12.42896344v67.68256968a14.36384062 14.36384062 0 0 0 21.56958937 12.41943282l142.37072813-82.77079875z" fill="#FFFFFF" p-id="1708"></path><path d="M1684.27059125 380.36917344a28.70861813 28.70861813 0 0 1 28.70861812 0l237.74205657 137.20470187a28.67049281 28.67049281 0 0 1 14.37337125 24.86745938v274.60956375a28.72768125 28.72768125 0 0 1-14.35430907 24.87699L1712.98874094 979.227905a28.74674438 28.74674438 0 0 1-28.72768125 0l-237.69439875-137.30001656a28.72768125 28.72768125 0 0 1-14.35430907-24.87699V542.43180313c0-10.25580094 5.47103156-19.73955844 14.36384063-24.85792782L1684.27059125 380.36917344z" fill="#80BD01" p-id="1709"></path><path d="M3833.44238094 983.15484781a47.09471625 47.09471625 0 0 1-23.52352969-6.29073281l-74.85019312-44.28294937c-11.17081687-6.2526075-5.72838-8.46389531-2.03019094-9.75063563 14.89759969-5.17555781 17.92858969-6.36698438 33.84605062-15.38370187 1.648935-0.94360969 3.85069125-0.5909475 5.56634625 0.42891281l57.50301938 34.14152437a7.38684563 7.38684563 0 0 0 6.93886969 0l224.19791625-129.40800562a7.043715 7.043715 0 0 0 3.41224593-6.06197906V547.79798844a7.21528031 7.21528031 0 0 0-3.46943437-6.16682438l-224.11213406-129.29362875a7.01512031 7.01512031 0 0 0-6.90074344 0L3605.9942525 541.65975875a7.18668562 7.18668562 0 0 0-3.5552175 6.13822969v258.73976062c0 2.47816781 1.37252344 4.82289562 3.53615437 5.99525907l61.40136844 35.4759225c33.32182313 16.66091156 53.73811125-2.95473844 53.73811125-22.67523282v-255.44189156c0-3.61240594 2.90708156-6.46229813 6.509955-6.46229906h28.4322075a6.48136125 6.48136125 0 0 1 6.50042438 6.46229906v255.44189156c0 44.47357687-24.2193225 69.97964063-66.38629688 69.97963969-12.9627225 0-23.16133594 0-51.64120031-14.03024062l-58.78976063-33.84605063a47.37112688 47.37112688 0 0 1-23.51399812-40.89929719V547.79798844c0-16.80388219 8.97859219-32.50212094 23.51399812-40.86117094l224.18838469-129.55097719c14.19227531-8.01591937 33.05494313-8.01591937 47.12331 0l224.1693225 129.55097719a47.34253219 47.34253219 0 0 1 23.561655 40.86117094v258.73976062a47.45691 47.45691 0 0 1-23.561655 40.89929719L3857.05169281 976.864115a47.12331 47.12331 0 0 1-23.60931187 6.29073281" fill="#80BD01" p-id="1710"></path><path d="M3902.69763406 804.90787719c-98.11637437 0-118.65657094-45.03593062-118.65657094-82.79939157 0-3.59334281 2.88801844-6.46229813 6.48136125-6.46229906h28.98502969a6.48136125 6.48136125 0 0 1 6.43370438 5.48056313c4.37491875 29.51878875 17.42342437 44.39732531 76.76600718 44.39732531 47.21862469 0 67.3299075-10.68471469 67.3299075-35.74280156 0-14.44009219-5.69978531-25.16293219-79.10120343-32.34961875-61.35371062-6.08104219-99.27920625-19.63471219-99.27920719-68.70243094 0-45.22655906 38.12565563-72.20999156 102.05284781-72.20999156 71.81920313 0 107.35231406 24.92464688 111.86067375 78.41494218a6.55761281 6.55761281 0 0 1-1.72518656 4.98492938 6.59573812 6.59573812 0 0 1-4.74664406 2.06831719h-29.089875a6.47182969 6.47182969 0 0 1-6.30026438-5.06118094c-6.96746344-31.05334594-23.95244344-40.97554781-70.00823437-40.97554875-51.56494875 0-57.56020781 17.966715-57.56020875 31.42507219 0 16.30824937 7.07230875 21.05489344 76.69928718 30.27177 68.90259094 9.10250062 101.62393406 22.00803469 101.623935 70.43714812 0 48.84849562-40.7372625 76.82319563-111.76535906 76.82319563" fill="#80BD01" p-id="1711"></path><path d="M3117.65226312 622.35270781a5.4615 5.4615 0 0 1 5.49962625 0l45.62687813 26.325765c1.71565406 0.98173594 2.75457844 2.80223531 2.75457844 4.76570719v52.68012469a5.49962625 5.49962625 0 0 1-2.75457844 4.77523781l-45.62687813 26.33529656a5.49962625 5.49962625 0 0 1-5.49962625 0l-45.58875187-26.33529656a5.49962625 5.49962625 0 0 1-2.75457844-4.77523781V653.44418c0-1.96347094 1.03892437-3.78397125 2.75457844-4.76570719l45.58875187-26.325765z" fill="#80BD01" p-id="1712"></path><path d="M377.799695 624.75462406c10.4654925 6.19541906 12.94366031 2.43051094 16.60372219 0.3336 3.66959437-2.1064425 140.06412656-80.16872156 148.747245-84.41973281 8.69264906-4.25101031 12.53380875-18.25265719 1.08658125-24.87699-11.44722844-6.643395-242.19322594-140.31194344-231.05100375-134.58356344 12.00004969 6.15729375-11.45675906-7.9015425-25.02949219-1.66799812-13.58226469 6.23354438-221.42427562 125.73841125-236.15984156 134.15465062-14.72603437 8.41623844-19.36783313 16.49887781-19.32017532 27.70782 0.03812531 11.20894312-0.74345063 259.75962187 0 274.51425 0.74345063 14.75462906 6.57667594 19.55846156 14.35430907 24.86745938 7.77763406 5.31852938 218.27890875 128.72174437 234.20590125 137.34767344 15.9269925 8.64499219 26.38295344 5.69025375 36.7245375-0.38125688 10.34158406-6.09057375 216.62044219-123.93697406 224.87464687-129.18878344 8.25420469-5.25180938 15.75542719-18.76735406-1.49643187-28.51798968-17.26139063-9.741105-140.86476563-82.85658094-145.63047188-85.23943407s-7.58700562-2.43051094-14.48774906 1.43924344c-6.90074344 3.88881656-68.83587094 38.71660312-76.37521969 43.12011563s-8.61639844 2.42097937-12.22880344 0.31453687c-3.60287437-2.11597406-67.5300675-39.41239594-74.90738156-43.5680925s-8.25420469-6.2526075-8.27326781-11.9142675c-0.00953156-5.65212844-0.17156531-77.40461156 0.21922312-85.76366156 0.38125687-8.35905 1.57268344-10.23673875 9.16921969-14.75462906 7.59653719-4.51789031 63.81281531-37.91596406 68.30211188-40.91835938 4.47976406-3.00239531 13.90633312-3.2883375 21.26458406 1.02939281 7.35825187 4.30819875 58.94226281 34.76106656 69.40775625 40.96601625" fill="#FFFFFF" p-id="1713"></path></svg>